# xmcd
#
# Track frame offsets: 
#        150
#        27751
#        52108
#        74679
#        95406
#        123532
#        152370
#        172614
#        219588
#        239013
#        260088
#        293539
#        305839
#
# Disc length: 4640 seconds
#
# Revision: 2
# Processed by: cddbd v1.5.2PL0 Copyright (c) Steve Scherf et al.
# Submitted via: ExactAudioCopy v0.99pb4
#
DISCID=bc121e0d
DTITLE=Jimi Hendrix - LA Forum 26th April 1969
DYEAR=2004
DGENRE=Classic Rock
TTITLE0=Killing Floor
TTITLE1=Spanish Castle Magic
TTITLE2=All Along the Watchtower
TTITLE3=Hey Joe
TTITLE4=Land Of the New Rising Sun
TTITLE5=Message to Love
TTITLE6=Foxy Lady
TTITLE7=Red House
TTITLE8=Ezy Rider
TTITLE9=Freedom
TTITLE10=Room Full of Mirrors
TTITLE11=Purple Haze
TTITLE12=Voodoo Chile (slight return)
EXTD=
EXTT0=
EXTT1=
EXTT2=
EXTT3=
EXTT4=
EXTT5=
EXTT6=
EXTT7=
EXTT8=
EXTT9=
EXTT10=
EXTT11=
EXTT12=
PLAYORDER=
